<svg fill="#000000" version="1.1" id="Capa_1" xmlns="http://www.w3.org/2000/svg" xmlns:xlink="http://www.w3.org/1999/xlink" viewBox="0 0 472.445 472.445" xml:space="preserve"><g id="SVGRepo_bgCarrier" stroke-width="0"></g><g id="SVGRepo_tracerCarrier" stroke-linecap="round" stroke-linejoin="round"></g><g id="SVGRepo_iconCarrier"> <g> <g id="_x33_7_66_"> <g> <path d="M441.53,147.976c-8.054-39.486-2.917-122.227-139.706-144.039C165.065-17.905,41.836,51.5,72.803,203.165 c0,27.652-54.712,70.549-41.545,85.057c13.182,14.527,35.568,15.086,35.568,15.086s-14.541,27.613-8.021,35.25 c6.584,7.654,24.736,4.379,24.736,4.379s-16.874,12.191-16.874,21.636c0,9.43,28.538,22.021,28.538,22.021 s-5.24,52.33,37.616,48.703c42.889-3.644,50.062-15.724,50.062-15.724l12.72,52.873h165.864l-5.811-114.969 C355.657,357.478,457.518,246.901,441.53,147.976z M322.925,241.731c-3.273,5.56-4.825,51.312-5.826,57.427 c-1.002,6.114-16.396,7.44-20.807-3.33c-3.319-8.109-13.429-53.521-18.228-75.484c-17.878-3.23-31.495-19.807-31.495-39.781 c0-3.078,0.334-6.068,0.944-8.947c-1.269,0.137-2.556,0.207-3.858,0.207c-11.021,0-20.94-5.021-27.86-13.031 c-5.891,4.027-12.892,6.373-20.412,6.373c-16.404,0-30.368-11.119-35.628-26.672c-0.201-0.008-0.399-0.006-0.6-0.016 c-20.885-1.092-36.873-20.023-35.71-42.283c0.141-2.695,0.531-5.314,1.137-7.836c1.694-19.783,28.281-41.652,64.682-51.6 c30.554-8.352,59.419-5.947,74.724,4.602c5.143-2.787,10.956-4.363,17.117-4.363c17.425,0,32.091,12.547,36.503,29.627 c1.937-0.324,3.92-0.498,5.942-0.498c17.506,0,32.229,12.664,36.564,29.865c20.058,5.293,35.332,23.494,37.619,45.863 c8.933,9.621,14.453,22.852,14.453,37.457c0,25.865-17.296,47.416-40.229,52.246l-0.103,0.627 C371.857,232.183,326.199,236.171,322.925,241.731z"></path> <path d="M315.538,95.687c-0.709-0.072-1.458-0.117-2.228-0.117c-7.761,0-15.493,3.643-20.305,9.428 c-4.816-5.785-12.545-9.428-20.301-9.428c-0.77,0-1.513,0.045-2.235,0.117c-8.741,0.938-14.89,3.893-18.801,9.023 c-3.877,5.09-5.142,11.988-3.754,20.506c2.024,12.354,18.027,27.4,30.88,39.494l0.294,0.275c3.58,3.373,6.673,6.281,8.687,8.451 c0.272,0.305,2.727,2.99,5.414,2.99c2.704,0,5.104-2.725,5.321-2.988c2.142-2.32,5.615-5.611,9.046-8.854 c12.711-12.059,28.531-27.066,30.537-39.373c1.394-8.512,0.138-15.406-3.743-20.5C330.441,99.578,324.291,96.624,315.538,95.687z "></path> </g> </g> </g> </g></svg>